<?xml version="1.0" encoding="UTF-8"?>
<svg id="Ebene_1" data-name="Ebene 1" xmlns="http://www.w3.org/2000/svg" width="43.71mm" height="21.81mm" viewBox="0 0 123.91 61.81">
  <defs>
    <style>
      .cls-1, .cls-2 {
        fill-rule: evenodd;
      }

      .cls-1, .cls-2, .cls-3 {
        stroke-width: 0px;
      }

      .cls-1, .cls-3 {
        fill: #1d1d1b;
      }

      .cls-2 {
        fill: #e20613;
      }
    </style>
  </defs>
  <g id="Page-1">
    <g id="Raylase_Logo_Neuer-Claim" data-name="Raylase Logo Neuer-Claim">
      <path id="Path" class="cls-1" d="M46.53,14.75l-.94-2.31-.08-.25c-2.18.31-3.88.83-3.88.83l2.64,5.96s36.31-8.2,70.73,9.31l.59-1.16C83.25,9.14,46.53,14.75,46.53,14.75Z"/>
      <path id="Path-2" data-name="Path" class="cls-1" d="M74.5,2.69C46.15.28,7.81,12.45,1.93,14.64l.43,1.38C10.75,13.34,43.14,3.83,71.97,6.17l.93,2.34,4.28.32-2.68-6.14Z"/>
      <path id="Path-3" data-name="Path" class="cls-2" d="M41.63,13.02l-1.46-3.3c13.13-2.05,25.12-1.9,32.7-1.27l4.31.38,1.61,3.69c-6.53-.95-20.51-1.9-33.21-.09l-3.95.59Z"/>
      <g id="Group">
        <path id="Shape" class="cls-3" d="M11.95,45.8l-2.91-6.69h-2.91v6.69h-3.61v-18.03h9.19c2.1,0,3.56,1.45,3.56,3.56v4.23c0,1.7-.95,2.98-2.45,3.41l3.01,6.84h-3.88ZM11.67,32.02c0-.55-.3-.85-.85-.85h-4.68v4.58h4.68c.55,0,.85-.3.85-.85v-2.88Z"/>
        <path id="Shape-2" data-name="Shape" class="cls-3" d="M21.71,45.8h-3.73l5.81-18.03h4.21l5.81,18.03h-3.88l-1.18-4.06h-5.84l-1.2,4.06ZM23.91,38.33h3.86l-1.9-6.61-1.96,6.61Z"/>
        <polygon id="Path-4" data-name="Path" class="cls-1" points="38.24 45.8 38.24 39.56 32.68 27.76 36.64 27.76 40.05 35.47 43.46 27.76 47.42 27.76 41.86 39.56 41.86 45.8 38.24 45.8"/>
        <polygon id="Path-5" data-name="Path" class="cls-1" points="53.51 27.76 53.51 42.39 61.07 42.39 61.07 45.8 49.9 45.8 49.9 27.77 53.51 27.77 53.51 27.76"/>
        <path id="Shape-3" data-name="Shape" class="cls-3" d="M66.81,45.8h-3.73l5.81-18.03h4.21l5.81,18.03h-3.88l-1.18-4.06h-5.84l-1.2,4.06ZM69.01,38.33h3.86l-1.9-6.61-1.96,6.61Z"/>
        <path id="Path-6" data-name="Path" class="cls-1" d="M89.83,31.92c0-.55-.3-.85-.85-.85h-3.61c-.55,0-.85.3-.85.85v1.7c0,.55.3.73.85.85l4.66,1c1.95.43,3.61,1.6,3.61,3.61v3.26c0,2.1-1.45,3.56-3.56,3.56h-5.61c-2.1,0-3.56-1.45-3.56-3.56v-2.3h3.51v1.6c0,.55.3.85.85.85h3.91c.55,0,.85-.3.85-.85v-1.9c0-.55-.3-.73-.85-.85l-4.66-1c-1.95-.43-3.61-1.6-3.61-3.61v-3.06c0-2.1,1.45-3.56,3.56-3.56h5.31c2.1,0,3.56,1.45,3.56,3.56v2.1h-3.51v-1.4Z"/>
        <polygon id="Path-7" data-name="Path" class="cls-1" points="108.56 27.76 108.56 31.17 100.37 31.17 100.37 34.88 107.01 34.88 107.01 38.29 100.37 38.29 100.37 42.4 108.56 42.4 108.56 45.81 96.76 45.81 96.76 27.78 108.56 27.78 108.56 27.76"/>
      </g>
      <path id="Path-8" data-name="Path" class="cls-2" d="M121.59,30.67c-.1.68-.74,1.15-1.43,1.05-.68-.1-1.15-.74-1.05-1.43.1-.68.74-1.15,1.43-1.05.68.1,1.15.74,1.05,1.43"/>
      <g id="Group-2" data-name="Group">
        <polygon id="Path-9" data-name="Path" class="cls-1" points="2.54 50.7 7.72 50.7 7.72 51.27 5.47 51.27 5.47 58.28 4.78 58.28 4.78 51.27 2.53 51.27 2.53 50.7 2.54 50.7"/>
        <polygon id="Path-10" data-name="Path" class="cls-1" points="10.18 50.7 10.87 50.7 10.87 54.06 14.96 54.06 14.96 50.7 15.65 50.7 15.65 58.28 14.96 58.28 14.96 54.63 10.87 54.63 10.87 58.28 10.18 58.28 10.18 50.7"/>
        <polygon id="Path-11" data-name="Path" class="cls-1" points="18.77 58.27 18.77 50.69 23.09 50.69 23.09 51.26 19.46 51.26 19.46 54.05 22.07 54.05 22.07 54.62 19.46 54.62 19.46 57.71 23.12 57.71 23.12 58.28 18.77 58.28 18.77 58.27"/>
        <path id="Shape-4" data-name="Shape" class="cls-3" d="M30.04,58.27v-7.58h2.29c.45,0,.83.05,1.16.15s.59.24.8.42c.21.18.36.4.46.67.1.26.15.55.15.87s-.05.6-.15.87c-.1.26-.25.48-.46.67-.21.18-.47.32-.8.43-.33.1-.71.15-1.16.15h-1.59v3.36h-.7ZM30.73,54.35h1.59c.66,0,1.13-.13,1.43-.39.29-.26.44-.65.44-1.15s-.15-.89-.44-1.15c-.29-.26-.77-.39-1.43-.39h-1.59v3.08Z"/>
        <path id="Shape-5" data-name="Shape" class="cls-3" d="M40.09,50.59c.48,0,.9.1,1.27.29.37.2.68.47.94.81.26.35.45.76.58,1.23.13.48.2.99.2,1.55s-.07,1.08-.2,1.55c-.13.48-.33.89-.58,1.23-.26.35-.57.62-.94.81-.37.2-.79.29-1.27.29s-.9-.1-1.27-.29c-.37-.2-.68-.47-.94-.81-.26-.35-.45-.76-.58-1.23-.13-.48-.2-.99-.2-1.55s.07-1.08.2-1.55c.13-.48.33-.89.58-1.23.26-.35.57-.62.94-.81.38-.19.8-.29,1.27-.29ZM40.09,57.81c.35,0,.67-.07.95-.22.28-.15.52-.36.72-.65.2-.28.35-.63.46-1.04.11-.41.16-.88.16-1.42s-.05-1-.16-1.42c-.11-.41-.26-.76-.46-1.04s-.44-.5-.72-.65c-.28-.15-.6-.22-.95-.22s-.67.07-.95.22c-.28.15-.52.36-.72.65-.2.28-.35.63-.46,1.04-.11.41-.16.89-.16,1.42s.05,1,.16,1.42c.11.41.26.76.46,1.04s.44.5.72.65c.29.15.6.22.95.22Z"/>
        <polygon id="Path-12" data-name="Path" class="cls-1" points="44.82 50.7 45.52 50.7 47.14 57.02 47.16 57.02 48.67 50.7 49.36 50.7 50.84 57.02 50.86 57.02 52.51 50.7 53.21 50.7 51.18 58.28 50.49 58.28 49.01 52.05 48.99 52.05 47.51 58.28 46.82 58.28 44.82 50.7"/>
        <polygon id="Path-13" data-name="Path" class="cls-1" points="55.6 58.27 55.6 50.69 59.92 50.69 59.92 51.26 56.29 51.26 56.29 54.05 58.9 54.05 58.9 54.62 56.29 54.62 56.29 57.71 59.93 57.71 59.93 58.28 55.6 58.28 55.6 58.27"/>
        <path id="Shape-6" data-name="Shape" class="cls-3" d="M67.71,58.27h-.75l-1.76-3.46h-1.96v3.46h-.69v-7.58h2.56c.75,0,1.32.19,1.73.56.4.37.6.87.6,1.5,0,.5-.13.92-.38,1.24-.25.32-.65.55-1.2.69l1.85,3.59ZM63.23,54.25h1.87c.5,0,.9-.13,1.2-.39.29-.26.44-.63.44-1.1s-.14-.83-.41-1.1c-.27-.26-.68-.39-1.23-.39h-1.87v2.98Z"/>
        <path id="Shape-7" data-name="Shape" class="cls-3" d="M77.42,50.59c.48,0,.9.1,1.27.29.37.2.68.47.94.81.26.35.45.76.58,1.23.13.48.2.99.2,1.55s-.07,1.08-.2,1.55c-.13.48-.33.89-.58,1.23-.26.35-.57.62-.94.81-.37.2-.79.29-1.27.29s-.9-.1-1.27-.29c-.37-.2-.68-.47-.94-.81-.26-.35-.45-.76-.58-1.23-.13-.48-.2-.99-.2-1.55s.07-1.08.2-1.55c.13-.48.33-.89.58-1.23.26-.35.57-.62.94-.81.37-.19.79-.29,1.27-.29ZM77.42,57.81c.35,0,.67-.07.95-.22s.52-.36.72-.65c.2-.28.35-.63.46-1.04s.16-.88.16-1.42-.05-1-.16-1.42c-.11-.41-.26-.76-.46-1.04-.2-.28-.44-.5-.72-.65-.28-.15-.6-.22-.95-.22s-.67.07-.95.22c-.28.15-.52.36-.72.65-.2.28-.35.63-.46,1.04-.11.41-.16.89-.16,1.42s.05,1,.16,1.42c.11.41.26.76.46,1.04.2.28.44.5.72.65s.6.22.95.22Z"/>
        <polygon id="Path-14" data-name="Path" class="cls-1" points="83.1 58.27 83.1 50.69 87.55 50.69 87.55 51.26 83.79 51.26 83.79 54.05 86.53 54.05 86.53 54.62 83.79 54.62 83.79 58.27 83.1 58.27"/>
        <polygon id="Path-15" data-name="Path" class="cls-1" points="93.49 50.7 94.19 50.7 95.81 57.02 95.83 57.02 97.34 50.7 98.03 50.7 99.51 57.02 99.53 57.02 101.18 50.7 101.88 50.7 99.85 58.28 99.16 58.28 97.68 52.05 97.66 52.05 96.18 58.28 95.49 58.28 93.49 50.7"/>
        <polygon id="Path-16" data-name="Path" class="cls-1" points="104.26 58.27 104.26 50.69 108.58 50.69 108.58 51.26 104.95 51.26 104.95 54.05 107.56 54.05 107.56 54.62 104.95 54.62 104.95 57.71 108.59 57.71 108.59 58.28 104.26 58.28 104.26 58.27"/>
      </g>
    </g>
  </g>
</svg>